<svg width="12" height="16" viewBox="0 0 12 16" fill="none" xmlns="http://www.w3.org/2000/svg">
<g clip-path="url(#clip0_2_29)">
<path d="M5.74379 5.46603L7.41365 7.75642L7.4216 7.63645C7.4216 6.43308 6.70861 5.45513 5.83125 5.45513L5.74379 5.46603Z" fill="black"/>
<path d="M5.83129 4.00083C7.29441 4.00083 8.48188 5.62957 8.48188 7.63638C8.48188 8.10537 8.41297 8.55254 8.29369 8.96334L9.84428 11.0901C10.6447 10.174 11.2756 8.9888 11.6652 7.63638C10.7455 4.44439 8.48453 2.18308 5.83131 2.18308C5.08914 2.18308 4.3788 2.36484 3.71881 2.69204L4.86386 4.25895C5.16334 4.09899 5.48936 4.00083 5.83129 4.00083Z" fill="black"/>
<path d="M0.530108 2.01958L1.73877 3.67739L1.97998 4.00823C1.10529 4.9462 0.41349 6.1932 0 7.63649C0.917109 10.8285 3.18069 13.0898 5.83128 13.0898C6.65297 13.0898 7.43753 12.8717 8.15585 12.4754L8.38116 12.7844L9.92645 14.9075L10.6023 13.9841L1.20601 1.09252L0.530108 2.01958ZM3.46166 6.03686L4.28069 7.16024C4.25684 7.31658 4.24093 7.47289 4.24093 7.63649C4.24093 8.83986 4.95393 9.81781 5.83128 9.81781C5.95056 9.81781 6.06454 9.796 6.17587 9.76328L6.99489 10.8867C6.64236 11.1266 6.25009 11.272 5.83128 11.272C4.36816 11.272 3.18069 9.6433 3.18069 7.63649C3.18069 7.06208 3.28673 6.52401 3.46166 6.03686Z" fill="black"/>
</g>
<defs>
<clipPath id="clip0_2_29">
<rect width="11.491" height="15.761" fill="white" transform="scale(1.01516)"/>
</clipPath>
</defs>
</svg>
